<svg xmlns="http://www.w3.org/2000/svg" width="900" height="520" viewBox="0 0 900 520">
  <rect width="900" height="520" fill="#fbfaf6"/>
  <text x="450" y="42" text-anchor="middle" font-family="Georgia, serif" font-size="28" fill="#1f2937">Benchmark QPS</text>
  <text x="450" y="70" text-anchor="middle" font-family="Verdana, sans-serif" font-size="13" fill="#6b7280">Atlas WebServer benchmark, 10s duration</text>

  <line x1="90" y1="430" x2="860" y2="430" stroke="#374151" stroke-width="2"/>
  <line x1="90" y1="110" x2="90" y2="430" stroke="#374151" stroke-width="2"/>

  <g font-family="Verdana, sans-serif" font-size="12" fill="#6b7280">
    <text x="72" y="434" text-anchor="end">0</text>
    <text x="72" y="354" text-anchor="end">2000</text>
    <text x="72" y="274" text-anchor="end">4000</text>
    <text x="72" y="194" text-anchor="end">6000</text>
    <text x="72" y="114" text-anchor="end">8000</text>
  </g>

  <g stroke="#e5e7eb" stroke-width="1">
    <line x1="90" y1="350" x2="860" y2="350"/>
    <line x1="90" y1="270" x2="860" y2="270"/>
    <line x1="90" y1="190" x2="860" y2="190"/>
    <line x1="90" y1="110" x2="860" y2="110"/>
  </g>

  <g font-family="Verdana, sans-serif" font-size="12">
    <rect x="130" y="126" width="90" height="304" fill="#1d4ed8" rx="6"/>
    <text x="175" y="118" text-anchor="middle" fill="#1f2937">7601.75</text>
    <text x="175" y="450" text-anchor="middle" fill="#374151">healthz</text>
    <text x="175" y="467" text-anchor="middle" fill="#6b7280">200c</text>

    <rect x="275" y="199" width="90" height="231" fill="#2563eb" rx="6"/>
    <text x="320" y="191" text-anchor="middle" fill="#1f2937">5779.42</text>
    <text x="320" y="450" text-anchor="middle" fill="#374151">healthz</text>
    <text x="320" y="467" text-anchor="middle" fill="#6b7280">500c</text>

    <rect x="420" y="304" width="90" height="126" fill="#0f766e" rx="6"/>
    <text x="465" y="296" text-anchor="middle" fill="#1f2937">3153.38</text>
    <text x="465" y="450" text-anchor="middle" fill="#374151">private/ping</text>
    <text x="465" y="467" text-anchor="middle" fill="#6b7280">200c</text>

    <rect x="565" y="189" width="90" height="241" fill="#059669" rx="6"/>
    <text x="610" y="181" text-anchor="middle" fill="#1f2937">6024.66</text>
    <text x="610" y="450" text-anchor="middle" fill="#374151">private/files</text>
    <text x="610" y="467" text-anchor="middle" fill="#6b7280">200c</text>

    <rect x="710" y="207" width="90" height="223" fill="#16a34a" rx="6"/>
    <text x="755" y="199" text-anchor="middle" fill="#1f2937">5579.91</text>
    <text x="755" y="450" text-anchor="middle" fill="#374151">private/files</text>
    <text x="755" y="467" text-anchor="middle" fill="#6b7280">500c</text>
  </g>
</svg>
