<svg xmlns="http://www.w3.org/2000/svg" width="900" height="520" viewBox="0 0 900 520">
  <rect width="900" height="520" fill="#f8fafc"/>
  <text x="450" y="42" text-anchor="middle" font-family="Georgia, serif" font-size="28" fill="#111827">Benchmark P99 Latency</text>
  <text x="450" y="70" text-anchor="middle" font-family="Verdana, sans-serif" font-size="13" fill="#6b7280">Milliseconds, wrk --latency</text>

  <line x1="90" y1="430" x2="860" y2="430" stroke="#374151" stroke-width="2"/>
  <line x1="90" y1="90" x2="90" y2="430" stroke="#374151" stroke-width="2"/>

  <g font-family="Verdana, sans-serif" font-size="12" fill="#6b7280">
    <text x="72" y="434" text-anchor="end">0</text>
    <text x="72" y="359" text-anchor="end">200</text>
    <text x="72" y="284" text-anchor="end">400</text>
    <text x="72" y="209" text-anchor="end">600</text>
    <text x="72" y="134" text-anchor="end">800</text>
  </g>

  <g stroke="#e5e7eb" stroke-width="1">
    <line x1="90" y1="355" x2="860" y2="355"/>
    <line x1="90" y1="280" x2="860" y2="280"/>
    <line x1="90" y1="205" x2="860" y2="205"/>
    <line x1="90" y1="130" x2="860" y2="130"/>
  </g>

  <g font-family="Verdana, sans-serif" font-size="12">
    <rect x="130" y="398" width="90" height="32" fill="#7c3aed" rx="6"/>
    <text x="175" y="390" text-anchor="middle" fill="#1f2937">83.77</text>
    <text x="175" y="450" text-anchor="middle" fill="#374151">healthz</text>
    <text x="175" y="467" text-anchor="middle" fill="#6b7280">200c</text>

    <rect x="275" y="289" width="90" height="141" fill="#8b5cf6" rx="6"/>
    <text x="320" y="281" text-anchor="middle" fill="#1f2937">371.61</text>
    <text x="320" y="450" text-anchor="middle" fill="#374151">healthz</text>
    <text x="320" y="467" text-anchor="middle" fill="#6b7280">500c</text>

    <rect x="420" y="315" width="90" height="115" fill="#db2777" rx="6"/>
    <text x="465" y="307" text-anchor="middle" fill="#1f2937">304.58</text>
    <text x="465" y="450" text-anchor="middle" fill="#374151">private/ping</text>
    <text x="465" y="467" text-anchor="middle" fill="#6b7280">200c</text>

    <rect x="565" y="395" width="90" height="35" fill="#ec4899" rx="6"/>
    <text x="610" y="387" text-anchor="middle" fill="#1f2937">92.37</text>
    <text x="610" y="450" text-anchor="middle" fill="#374151">private/files</text>
    <text x="610" y="467" text-anchor="middle" fill="#6b7280">200c</text>

    <rect x="710" y="103" width="90" height="327" fill="#f43f5e" rx="6"/>
    <text x="755" y="95" text-anchor="middle" fill="#1f2937">864.80</text>
    <text x="755" y="450" text-anchor="middle" fill="#374151">private/files</text>
    <text x="755" y="467" text-anchor="middle" fill="#6b7280">500c</text>
  </g>
</svg>
